<svg width="359" height="120" viewBox="0 0 359 120" fill="none" xmlns="http://www.w3.org/2000/svg">
<path d="M294.5 42.5C294.5 42.5 294.5 43 296 46C297.5 49 298.5 49 294.5 51M0 6.5H224C229.523 6.5 234 10.9772 234 16.5V45.5C234 46.6046 234.895 47.5 236 47.5H257.5C258.605 47.5 259.5 46.6046 259.5 45.5V16C259.5 15.4477 259.948 15 260.5 15C261.052 15 261.5 15.4477 261.5 16V49C261.5 50.1046 262.395 51 263.5 51H265C266.105 51 267 50.1046 267 49V40.5M0 4.42883H227C232.523 4.42883 237 8.90598 237 14.4288V57.5C237 61.366 240.134 64.5 244 64.5H346.729C349.49 64.5 351.729 66.7386 351.729 69.5V108.5C351.729 111.261 349.506 113.5 346.744 113.5H0M0 2.39368H229.5C235.023 2.39368 239.5 6.87083 239.5 12.3937V55.5C239.5 59.366 242.634 62.5 246.5 62.5H349C351.761 62.5 354 64.7386 354 67.5V110.5C354 113.261 351.779 115.5 349.017 115.5H0M0 0.5H231.98C237.51 0.5 241.991 4.98956 241.98 10.5203L241.892 53.4858C241.884 57.3573 245.021 60.5 248.892 60.5H350.837C353.599 60.5 355.837 62.7386 355.837 65.5V112.5C355.837 115.261 353.617 117.5 350.856 117.5H0M0 119.5H353C355.761 119.5 358 117.257 358 114.495C358.001 95.9216 358.01 82.0784 358.011 63.5045C358.011 60.7431 355.773 58.5 353.011 58.5H322.604C319.821 58.5 317.573 56.2268 317.605 53.4434L317.989 19.5056C317.995 18.9521 317.548 18.5 316.994 18.5C316.445 18.5 316 18.9452 316 19.4943V37.25C316 37.6642 315.664 38 315.25 38C314.836 38 314.5 37.6642 314.5 37.25V22C314.5 20.067 312.933 18.5 311 18.5" stroke="#B06928" stroke-width="0.6"/>
</svg>
